<?xml version="1.0" encoding="utf-8"?>
<!-- Generator: Adobe Illustrator 16.0.0, SVG Export Plug-In . SVG Version: 6.00 Build 0)  -->
<!DOCTYPE svg PUBLIC "-//W3C//DTD SVG 1.1//EN" "http://www.w3.org/Graphics/SVG/1.1/DTD/svg11.dtd">
<svg version="1.1" id="Layer_1" xmlns="http://www.w3.org/2000/svg" xmlns:xlink="http://www.w3.org/1999/xlink" x="0px" y="0px"
	 width="72.693px" height="42.026px" viewBox="0 0 72.693 42.026" enable-background="new 0 0 72.693 42.026" xml:space="preserve">
<g>
	<path fill="#FFFFFF" d="M4.252,41.426V23.907H0v-4.945h4.252V8.921C4.252,2.819,8.365,0,12.941,0c1.989,0,4.067,0.648,5.915,1.849
		l-2.079,4.206c-1.202-0.786-2.311-1.202-3.465-1.202c-1.942,0-3.423,1.294-3.423,4.067v10.041h6.704v4.945H9.89v17.519H4.252z"/>
	<rect x="20.956" y="18.546" fill="#FFFFFF" width="5.641" height="22.879"/>
	<path fill="#FFFFFF" d="M36.376,18.639l0.417,2.634c1.756-2.819,4.114-3.235,6.425-3.235c2.355,0,4.621,0.924,5.87,2.172
		l-2.543,4.9c-1.155-0.971-2.219-1.479-4.067-1.479c-2.959,0-5.685,1.57-5.685,5.777v12.018h-5.639V18.639H36.376z"/>
	<path fill="#FFFFFF" d="M54.795,32.043c0.37,2.819,2.82,4.853,6.794,4.853c2.08,0,4.809-0.785,6.103-2.126l3.604,3.559
		c-2.403,2.496-6.333,3.698-9.798,3.698c-7.858,0-12.526-4.853-12.526-12.155c0-6.934,4.714-11.926,12.109-11.926
		c7.625,0,12.388,4.714,11.508,14.098H54.795z M67.183,27.375c-0.37-2.959-2.682-4.438-5.917-4.438c-3.05,0-5.546,1.479-6.378,4.438
		H67.183z"/>
	<g>
		<path fill="#F29023" d="M23.445,9.546c0.785-0.306,1.559,0.625,1.867,1.227c0.502,0.97,0.355,2.087-0.577,2.73
			c-0.696,0.481-1.619,0.671-2.452,0.71c-0.595,0.029-1.334-0.057-1.721-0.565c-0.341-0.445-0.361-1.078-0.317-1.612
			c0.061-0.714,0.269-1.413,0.539-2.073c0.301-0.741,0.692-1.46,1.182-2.095c0.335-0.433,0.768-0.951,1.312-1.117
			c0.21-0.064-0.097-0.519-0.277-0.463c-0.548,0.167-0.978,0.637-1.319,1.07c-0.497,0.621-0.896,1.319-1.213,2.047
			c-0.54,1.245-1.056,2.993-0.259,4.243c0.388,0.606,1.029,0.942,1.734,1.014c0.924,0.096,1.965-0.103,2.792-0.523
			c0.581-0.294,1.065-0.777,1.226-1.422c0.14-0.563,0.039-1.158-0.184-1.687c-0.259-0.607-0.672-1.164-1.195-1.566
			c-0.383-0.293-0.928-0.571-1.416-0.382C22.956,9.166,23.271,9.614,23.445,9.546"/>
		<path fill="#F29023" d="M22.871,15.976c1.06,0.234,2.248-0.335,3.017-1.032c1.13-1.024,1.459-2.523,1.05-3.97
			c-0.273-0.97-0.807-1.985-1.496-2.723c-0.41-0.437-0.97-0.774-1.588-0.677c-1.199,0.188-2.037,1.527-2.369,2.591
			c-0.182,0.58-0.263,1.254,0.021,1.815c0.313,0.617,0.896,0.911,1.573,0.867c0.117-0.007-0.145-0.456-0.3-0.446
			c-0.41,0.026-0.88-0.028-1.009-0.411c-0.152-0.459-0.048-0.995,0.09-1.443c0.309-0.985,1.038-2.163,2.086-2.481
			c0.487-0.147,0.986-0.028,1.355,0.322c0.324,0.308,0.56,0.733,0.771,1.123c0.217,0.4,0.4,0.823,0.52,1.263
			c0.353,1.312,0.043,2.669-0.936,3.628c-0.728,0.718-1.952,1.377-3.013,1.143C22.463,15.505,22.738,15.947,22.871,15.976"/>
	</g>
</g>
</svg>
